<svg width="39" height="18" viewBox="0 0 39 18" fill="none" xmlns="http://www.w3.org/2000/svg">
<path d="M38.6987 8.47011L30.9718 0.751389C30.5793 0.358912 29.9497 0.358912 29.5573 0.751389C29.1648 1.14387 29.1648 1.77347 29.5573 2.16594L35.5753 8.18393H1.33159C0.775581 8.18393 0.325867 8.63365 0.325867 9.18966C0.325867 9.74567 0.775581 10.1954 1.33159 10.1954H35.5753L29.5573 16.197C29.1648 16.5895 29.1648 17.2191 29.5573 17.6116C29.7535 17.8078 30.007 17.9059 30.2686 17.9059C30.5303 17.9059 30.7838 17.8078 30.98 17.6116L38.7069 9.88467C39.0912 9.50037 39.0912 8.86259 38.6987 8.47011Z" fill="#FFC700"/>
</svg>
