<svg width="119" height="101" viewBox="0 0 119 101" fill="none" xmlns="http://www.w3.org/2000/svg">
<path d="M62.0347 71.445L54.1373 69.5853C51.7143 69.0147 50.022 66.8668 50.022 64.3623V61.8945C55.992 58.0113 59.9551 51.2585 59.9551 43.5874V27.8741C59.9551 27.8734 59.9551 27.8727 59.9551 27.8721V27.8417C59.9551 27.8236 59.9528 27.8112 59.9524 27.7939C59.9441 27.3329 59.8133 26.8685 59.5436 26.4547C58.7823 25.2876 57.2259 24.9627 56.0657 25.7282C53.9626 27.1176 48.9064 27.9704 46.2071 27.9704C39.5698 27.9704 33.1734 25.5841 27.7366 21.2266L21.5704 14.5363C22.7279 12.8451 24.0209 11.3805 25.4315 10.1721C31.6824 4.81862 39.0407 5.07603 39.1028 5.07904C43.7439 5.3204 48.1527 7.44419 52.2082 11.3922C55.8345 14.9227 58.5458 19.9653 60.266 26.3794C60.6274 27.7273 62.0054 28.5236 63.3453 28.1616C64.6845 27.7975 65.477 26.4099 65.1156 25.0623C63.1556 17.7542 59.988 11.9325 55.7004 7.75776C49.5308 1.75178 43.4104 0.240424 39.3623 0.0298173C39.0799 0.0154425 34.0048 -0.201513 28.1986 2.46985C25.5481 1.18348 22.6216 0.508196 19.6579 0.508196C8.81839 0.508865 0 9.38446 0 20.2939C0 25.4798 1.97957 30.382 5.57402 34.0964C8.58689 37.21 12.458 39.1997 16.6609 39.8449V43.5877C16.6609 51.5677 20.9486 58.5559 27.3244 62.3511V64.3623C27.3244 66.8668 25.6321 69.0143 23.2091 69.5853L15.3118 71.445C7.6632 73.2465 2.32135 80.0264 2.32135 87.9325V98.1406C2.32135 99.537 3.44598 100.669 4.83301 100.669H72.5141C73.9011 100.669 75.0258 99.537 75.0258 98.1406V87.9325C75.0251 80.0264 69.6832 73.2465 62.0347 71.445ZM16.6619 34.7145C9.96229 33.3358 5.02333 27.4348 5.02333 20.2939C5.02333 12.1722 11.5881 5.56477 19.6575 5.56477C20.6842 5.56477 21.7032 5.67877 22.6993 5.89105C22.5246 6.03279 22.3499 6.17387 22.1765 6.32229C19.9352 8.24183 17.9527 10.6498 16.2816 13.4783C16.2803 13.4803 16.2787 13.4819 16.2777 13.4839C16.273 13.4913 16.269 13.499 16.2644 13.5063C16.2587 13.516 16.2527 13.5251 16.2471 13.5344C16.2458 13.5368 16.2451 13.5391 16.2438 13.5411C14.6874 16.0654 13.5936 18.8143 12.9961 21.7143C12.463 24.3015 12.3378 26.9484 12.6247 29.582C12.7035 30.3064 13.0894 30.9613 13.683 31.3789C14.1088 31.678 14.6116 31.8345 15.1215 31.8345C15.3224 31.8345 15.5247 31.8101 15.7233 31.7606C16.0385 31.6824 16.3507 31.5965 16.6619 31.5069V34.7145ZM18.5379 25.399C18.2556 25.4732 17.9915 25.5932 17.757 25.7543C17.6776 25.7887 17.5999 25.8269 17.5199 25.8603C17.57 24.8136 17.7012 23.7716 17.9135 22.7416C18.139 21.6478 18.4578 20.5817 18.8571 19.5467C19.9196 20.8111 21.0366 21.9945 22.2024 23.0933C20.8536 24.1353 19.7439 24.7721 19.335 24.9931C19.0733 25.1348 18.8066 25.2686 18.5379 25.399ZM21.6839 43.5877V29.462C21.6936 29.4566 21.7032 29.452 21.7128 29.4469C22.4725 29.0361 24.2013 28.0238 26.1679 26.3764C32.1395 30.6845 39.0387 33.0269 46.2067 33.0269C48.0063 33.0269 51.6771 32.6666 54.9318 31.6747V43.588C54.9318 52.8136 47.4745 60.3193 38.308 60.3193C29.1416 60.3193 21.6839 52.8133 21.6839 43.5877ZM70.0024 95.6127H7.34434V87.9325C7.34434 82.3869 11.0912 77.6315 16.4564 76.3679L17.1632 76.2014C19.6403 80.2551 23.2463 83.5883 27.4842 85.7038C27.8429 85.8829 28.2232 85.9679 28.5982 85.9679C29.5222 85.9679 30.4117 85.4524 30.8501 84.5628C31.4666 83.3122 30.9587 81.7952 29.7162 81.1747C26.8259 79.7319 24.3026 77.5817 22.3911 74.9702L24.354 74.5078C29.0074 73.412 32.271 69.3209 32.3444 64.5271C34.2403 65.075 36.2394 65.3745 38.308 65.3745C40.643 65.3745 42.8903 64.9958 44.999 64.3044V64.3623C44.999 69.2269 48.2863 73.3993 52.9931 74.5078L54.962 74.9715C51.1909 80.1621 45.2017 83.2788 38.6734 83.2788C37.2864 83.2788 36.1617 84.4104 36.1617 85.8067C36.1617 87.2031 37.2864 88.3347 38.6734 88.3347C47.5403 88.3347 55.6107 83.7324 60.1846 76.2017L60.8904 76.3679C66.2555 77.6315 70.0024 82.3869 70.0024 87.9325V95.6127Z" fill="#FFC700"/>
<path d="M30.7199 37.4928C31.8913 37.4928 32.8409 36.537 32.8409 35.358C32.8409 34.1789 31.8913 33.2231 30.7199 33.2231C29.5484 33.2231 28.5988 34.1789 28.5988 35.358C28.5988 36.537 29.5484 37.4928 30.7199 37.4928Z" fill="#FFC700"/>
<path d="M45.1416 37.4928C46.3131 37.4928 47.2627 36.537 47.2627 35.358C47.2627 34.1789 46.3131 33.2231 45.1416 33.2231C43.9702 33.2231 43.0206 34.1789 43.0206 35.358C43.0206 36.537 43.9702 37.4928 45.1416 37.4928Z" fill="#FFC700"/>
<path d="M40.4616 48.8775C39.2221 50.1251 37.205 50.1251 35.9654 48.8775C34.9929 47.8987 33.4156 47.8983 32.4427 48.8779C31.4699 49.8567 31.4702 51.4443 32.4431 52.4235C34.034 54.0244 36.1239 54.8251 38.2137 54.8251C40.3035 54.8251 42.3934 54.0244 43.984 52.4235C44.9569 51.4446 44.9572 49.857 43.9843 48.8779C43.0118 47.8983 41.4345 47.8987 40.4616 48.8775Z" fill="#FFC700"/>
<path d="M80.4973 58.8517L80.4973 58.8518C79.2299 60.9094 78.5603 63.2626 78.5603 65.6565V65.6565C78.5599 67.2167 78.8697 68.9785 79.5178 70.503C80.1665 72.0293 81.1463 73.3002 82.4744 73.9093C82.9083 74.1077 83.2236 74.1447 83.5803 74.0458C83.953 73.9425 84.3793 73.6894 85.0282 73.2693L85.0283 73.2692L85.0412 73.2609C85.5231 72.9494 86.0777 72.591 86.7114 72.302C89.3043 71.1181 91.8774 71.0925 95.0334 72.2033L95.0336 72.2033C95.7273 72.4483 96.3867 72.7839 97.0148 73.1042C97.7976 73.5029 98.4257 73.8101 98.9785 73.9643C99.5249 74.1167 99.9844 74.1158 100.436 73.9092C101.765 73.3006 102.745 72.0298 103.394 70.5035C104.042 68.9789 104.352 67.2167 104.351 65.6557C104.351 62.1709 102.954 58.9361 100.417 56.5449L100.417 56.5448C98.0224 54.2878 94.7723 52.9402 91.502 52.8483L91.5019 52.8483C89.101 52.78 86.7706 53.3902 84.7587 54.6105L84.7586 54.6105C83.9938 55.0737 83.0009 54.8262 82.5411 54.057C82.0809 53.2885 82.3266 52.2906 83.0911 51.8276C85.6346 50.2843 88.5722 49.5137 91.5928 49.5998C95.6421 49.7137 99.6627 51.3808 102.626 54.1734L102.626 54.1734C105.821 57.185 107.582 61.2628 107.582 65.6549C107.583 67.7785 107.137 70.1168 106.191 72.1553C105.244 74.1937 103.792 75.9425 101.774 76.8665C99.392 77.9577 97.2426 76.8628 95.5741 76.0128L95.5549 76.003L95.5548 76.003C94.9833 75.7115 94.4549 75.4425 93.9657 75.2698C91.6015 74.4377 89.8394 74.4424 88.0468 75.2601C87.6252 75.4529 87.2187 75.7153 86.7766 76.0014C86.7766 76.0014 86.7766 76.0014 86.7766 76.0014L86.7673 76.0074C85.869 76.5893 84.6993 77.347 83.2107 77.347C82.5739 77.347 81.8836 77.2091 81.1348 76.8657C79.118 75.941 77.6666 74.1919 76.7208 72.1537C75.7749 70.1154 75.3295 67.7778 75.3299 65.6549M80.4973 58.8517L77.7507 57.1412C76.167 59.7125 75.3299 62.6568 75.3299 65.6549M80.4973 58.8517C80.9659 58.0893 80.7338 57.088 79.975 56.6155M80.4973 58.8517L79.975 56.6155M75.3299 65.6549L75.4799 65.6549M75.3299 65.6549L75.4799 65.6549M75.4799 65.6549C75.4791 69.8622 77.2468 74.9179 81.1973 76.7294C81.9275 77.0642 82.5966 77.197 83.2107 77.197C84.6542 77.197 85.7917 76.4606 86.6951 75.8755M75.4799 65.6549L86.6951 75.8755M86.6951 75.8755C87.1353 75.5906 87.5511 75.3218 87.9844 75.1237L86.6951 75.8755ZM79.975 56.6155C79.2169 56.1422 78.22 56.3771 77.7508 57.141L79.975 56.6155Z" fill="#FFC700" stroke="#FFC700" stroke-width="0.3"/>
<path d="M91.4557 45.7477C96.8564 45.7477 101.248 41.3264 101.248 35.8931C101.248 30.4598 96.8564 26.0386 91.4557 26.0386C86.0551 26.0386 81.6637 30.4598 81.6637 35.8931C81.6637 41.3264 86.0551 45.7477 91.4557 45.7477ZM91.4557 29.288C95.0723 29.288 98.0173 32.2501 98.0173 35.8931C98.0173 39.5362 95.073 42.4982 91.4557 42.4982C87.8385 42.4982 84.8942 39.5362 84.8942 35.8931C84.8942 32.2501 87.8392 29.288 91.4557 29.288Z" fill="#FFC700" stroke="#FFC700" stroke-width="0.3"/>
<path d="M109.901 52.843C114.401 52.843 118.061 49.1582 118.061 44.6309C118.061 40.1029 114.401 36.4181 109.901 36.4181C105.4 36.4181 101.74 40.1029 101.74 44.6309C101.74 49.1582 105.4 52.843 109.901 52.843ZM109.901 39.6676C112.618 39.6676 114.83 41.8932 114.83 44.6309C114.83 47.3679 112.618 49.5935 109.901 49.5935C107.184 49.5935 104.971 47.3679 104.971 44.6309C104.971 41.8932 107.184 39.6676 109.901 39.6676Z" fill="#FFC700" stroke="#FFC700" stroke-width="0.3"/>
<path d="M73.0108 52.843C77.5113 52.843 81.1709 49.1582 81.1709 44.6309C81.1709 40.103 77.5113 36.4181 73.0108 36.4181C68.5097 36.4181 64.85 40.1029 64.85 44.6309C64.85 49.1582 68.5097 52.843 73.0108 52.843ZM73.0108 39.6676C75.7278 39.6676 77.9405 41.8932 77.9405 44.6309C77.9405 47.3679 75.7278 49.5935 73.0108 49.5935C70.2931 49.5935 68.0812 47.3679 68.0812 44.6309C68.0812 41.8932 70.2931 39.6676 73.0108 39.6676Z" fill="#FFC700" stroke="#FFC700" stroke-width="0.3"/>
</svg>
