<svg width="100" height="100" viewBox="0 0 100 100" fill="none" xmlns="http://www.w3.org/2000/svg">
<path d="M98.0469 37.1094C99.1257 37.1094 100 36.235 100 35.1562V26.5625C100 23.3315 97.3717 20.7031 94.1406 20.7031H75.3906V11.3281C75.3906 7.23572 72.0612 3.90625 67.9688 3.90625H32.0312C27.9388 3.90625 24.6094 7.23572 24.6094 11.3281V20.7031H5.85938C2.62833 20.7031 0 23.3315 0 26.5625V35.1562C0 36.235 0.874328 37.1094 1.95312 37.1094H3.90625V44.1406H1.95312C0.874328 44.1406 0 45.015 0 46.0938C0 47.1725 0.874328 48.0469 1.95312 48.0469H3.90625V85.9375C3.90625 91.5375 8.46252 96.0938 14.0625 96.0938H41.2109C42.2897 96.0938 43.1641 95.2194 43.1641 94.1406C43.1641 93.0618 42.2897 92.1875 41.2109 92.1875H14.0625C10.6163 92.1875 7.8125 89.3837 7.8125 85.9375V37.1094H92.1875V85.9375C92.1875 89.3837 89.3837 92.1875 85.9375 92.1875H58.7891C57.7103 92.1875 56.8359 93.0618 56.8359 94.1406C56.8359 95.2194 57.7103 96.0938 58.7891 96.0938H85.9375C91.5375 96.0938 96.0938 91.5375 96.0938 85.9375V48.0469H98.0469C99.1257 48.0469 100 47.1725 100 46.0938C100 45.015 99.1257 44.1406 98.0469 44.1406H96.0938V37.1094H98.0469ZM28.5156 11.3281C28.5156 9.3895 30.0926 7.8125 32.0312 7.8125H67.9688C69.9074 7.8125 71.4844 9.3895 71.4844 11.3281V20.7031H67.5781V13.6719C67.5781 12.5931 66.7038 11.7188 65.625 11.7188H34.375C33.2962 11.7188 32.4219 12.5931 32.4219 13.6719V20.7031H28.5156V11.3281ZM63.6719 20.7031H36.3281V15.625H63.6719V20.7031ZM5.85938 33.2031H3.90625V26.5625C3.90625 25.4852 4.7821 24.6094 5.85938 24.6094H94.1406C95.2179 24.6094 96.0938 25.4852 96.0938 26.5625V33.2031H5.85938Z" fill="#FFC700"/>
<path d="M57.4219 79.4922V72.0703H64.8438C65.9225 72.0703 66.7969 71.196 66.7969 70.1172V59.1797C66.7969 58.1009 65.9225 57.2266 64.8438 57.2266H57.4219V49.8047C57.4219 48.7259 56.5475 47.8516 55.4688 47.8516H44.5312C43.4525 47.8516 42.5781 48.7259 42.5781 49.8047V57.2266H35.1562C34.0775 57.2266 33.2031 58.1009 33.2031 59.1797V70.1172C33.2031 71.196 34.0775 72.0703 35.1562 72.0703H42.5781V79.4922C42.5781 80.571 43.4525 81.4453 44.5312 81.4453H55.4688C56.5475 81.4453 57.4219 80.571 57.4219 79.4922ZM53.5156 70.1172V77.5391H46.4844V70.1172C46.4844 69.0384 45.61 68.1641 44.5312 68.1641H37.1094V61.1328H44.5312C45.61 61.1328 46.4844 60.2585 46.4844 59.1797V51.7578H53.5156V59.1797C53.5156 60.2585 54.39 61.1328 55.4688 61.1328H62.8906V68.1641H55.4688C54.39 68.1641 53.5156 69.0384 53.5156 70.1172Z" fill="#FFC700"/>
<path d="M50 92.1875C49.4865 92.1875 48.9822 92.3965 48.6191 92.7597C48.2559 93.1229 48.0469 93.6272 48.0469 94.1406C48.0469 94.6541 48.2559 95.1584 48.6191 95.5215C48.9822 95.8847 49.4865 96.0938 50 96.0938C50.5135 96.0938 51.0178 95.8847 51.3809 95.5215C51.7441 95.1584 51.9531 94.6541 51.9531 94.1406C51.9531 93.6272 51.7441 93.1229 51.3809 92.7597C51.0178 92.3965 50.5135 92.1875 50 92.1875Z" fill="#FFC700"/>
</svg>
