<svg width="100" height="100" viewBox="0 0 100 100" fill="none" xmlns="http://www.w3.org/2000/svg">
<mask id="path-1-outside-1" maskUnits="userSpaceOnUse" x="-0.673187" y="-1" width="101" height="102" fill="black">
<rect fill="white" x="-0.673187" y="-1" width="101" height="102"/>
<path d="M99.6686 85.3164C99.5709 81.5307 97.9686 78.0486 95.1565 75.5121L64.3065 47.6869L91.5834 20.4099C91.7627 20.3564 91.9399 20.2898 92.1108 20.1996L98.0176 17.082C98.8336 16.6512 99.3809 15.8805 99.5186 14.9681C99.6565 14.0556 99.3614 13.158 98.7088 12.5049L92.058 5.85428C91.4053 5.20174 90.5082 4.90662 89.595 5.04451C88.6827 5.18221 87.9121 5.72947 87.4811 6.54568L84.3633 12.4521C84.2723 12.6246 84.2024 12.8029 84.1487 12.984L71.2737 25.859C70.6752 26.4576 70.6752 27.4275 71.2737 28.0262C71.8723 28.6242 72.8422 28.6242 73.4409 28.0262L85.2557 16.2111L88.352 19.3074L58.1371 49.5223L55.0409 46.426L68.2293 33.2377C68.8278 32.639 68.8278 31.6691 68.2293 31.0705C67.6307 30.4724 66.6608 30.4724 66.0621 31.0705L56.493 40.6396L46.0785 31.2463C49.0313 22.7471 46.893 13.291 40.4877 6.88592C33.927 0.325175 24.0848 -1.76565 15.4133 1.55994C14.9287 1.74588 14.5711 2.16424 14.4633 2.67186C14.3555 3.17947 14.5116 3.70721 14.8785 4.0742L26.9082 16.1041C27.2641 16.4599 27.4604 16.9332 27.4604 17.4365C27.4604 17.9398 27.2643 18.4131 26.9082 18.7691L19.0959 26.5814C18.7401 26.9375 18.2668 27.1336 17.7635 27.1336C17.2602 27.1336 16.7869 26.9377 16.4309 26.5814L4.40101 14.5515C4.03382 14.1846 3.50647 14.0285 2.99866 14.1363C2.49104 14.2443 2.07269 14.6017 1.88675 15.0863C-1.43884 23.7574 0.651982 33.5996 7.21292 40.1607C13.4612 46.4088 22.734 48.6086 31.0994 45.9057L39.1516 54.7109C38.7647 55.467 38.2616 56.1721 37.641 56.7926C35.32 59.1137 31.8412 59.8449 28.7778 58.6559C28.2116 58.4355 27.5692 58.5711 27.1395 59.0006L8.37796 77.7621C3.29905 82.8412 3.29905 91.1053 8.37796 96.184C10.8387 98.6451 14.11 100 17.5895 100C21.0688 100 24.3403 98.6451 26.8006 96.1848L45.5621 77.4234C45.9914 76.9939 46.1268 76.3514 45.9069 75.7852C44.7176 72.7219 45.4489 69.2428 47.7698 66.9217C50.0912 64.6006 53.5702 63.8693 56.6334 65.0584C57.2 65.2787 57.842 65.1428 58.2717 64.7137L61.8108 61.1746C62.8764 60.109 63.4631 58.692 63.4631 57.1852C63.4631 55.6783 62.8764 54.2613 61.8108 53.1957L60.3043 51.6893L62.1369 49.8566L93.1041 77.7877C95.2862 79.7559 96.5297 82.4578 96.6053 85.3953C96.6809 88.3328 95.5782 91.0951 93.5002 93.1729C91.4323 95.2412 88.677 96.342 85.7588 96.2789C82.8348 96.2137 80.1375 94.9891 78.1639 92.8307L55.1387 67.6519C54.567 67.0271 53.5983 66.9842 52.9739 67.5553C52.3494 68.1266 52.3061 69.0957 52.8772 69.7201L75.9022 94.8988C78.4459 97.6803 81.9221 99.2584 85.6903 99.3426C85.7957 99.3449 85.901 99.3461 86.0063 99.3461C89.6563 99.3461 93.0764 97.9303 95.6672 95.3399C98.345 92.6619 99.7659 89.1021 99.6686 85.3164ZM87.1385 13.7597L90.0719 8.20232L96.3608 14.4912L90.8034 17.4246L87.1385 13.7597ZM32.6805 43.0935C32.2586 42.6326 31.5996 42.4736 31.0141 42.692C23.5213 45.4869 15.0287 43.6428 9.37972 37.9943C4.25042 32.8648 2.26292 25.4285 4.01429 18.4992L14.2637 28.7486C15.1987 29.6834 16.4414 30.198 17.7633 30.198C19.0852 30.198 20.328 29.6834 21.2627 28.7486L29.075 20.9363C30.0098 20.0014 30.5244 18.7586 30.5244 17.4367C30.5244 16.1148 30.0098 14.8721 29.075 13.9373L18.8258 3.68748C25.7545 1.93533 33.1916 3.92342 38.3207 9.05291C44.1135 14.8453 45.8936 23.5066 42.8563 31.1189C42.6186 31.7144 42.7768 32.3951 43.2532 32.8246L54.3233 42.8094L52.8737 44.259L51.3672 42.7525C50.3016 41.6869 48.8846 41.1002 47.3778 41.1002C45.8709 41.1002 44.4539 41.6869 43.3883 42.7525L39.8493 46.2916C39.42 46.7211 39.2846 47.3637 39.5045 47.9299C39.9121 48.9797 40.0889 50.0777 40.0586 51.1619L32.6805 43.0935ZM59.6434 59.0076L56.7758 61.8754C52.8321 60.7385 48.5407 61.817 45.603 64.7545H45.6028C42.6653 67.6922 41.5866 71.983 42.7239 75.9275L24.6336 94.0174C22.752 95.899 20.2504 96.9354 17.5897 96.9354C14.9289 96.9354 12.427 95.899 10.5457 94.0174C6.66155 90.1334 6.66155 83.8135 10.5457 79.9293L28.6358 61.8393C32.5799 62.9768 36.8707 61.8975 39.8086 58.96C42.7461 56.0223 43.825 51.7314 42.6877 47.7871L45.5555 44.9195C46.5602 43.9144 48.1955 43.9144 49.2002 44.9195L51.7903 47.5096L57.0534 52.7727L59.6434 55.3627C60.6485 56.3678 60.6485 58.0029 59.6434 59.0076Z"/>
</mask>
<path d="M99.6686 85.3164C99.5709 81.5307 97.9686 78.0486 95.1565 75.5121L64.3065 47.6869L91.5834 20.4099C91.7627 20.3564 91.9399 20.2898 92.1108 20.1996L98.0176 17.082C98.8336 16.6512 99.3809 15.8805 99.5186 14.9681C99.6565 14.0556 99.3614 13.158 98.7088 12.5049L92.058 5.85428C91.4053 5.20174 90.5082 4.90662 89.595 5.04451C88.6827 5.18221 87.9121 5.72947 87.4811 6.54568L84.3633 12.4521C84.2723 12.6246 84.2024 12.8029 84.1487 12.984L71.2737 25.859C70.6752 26.4576 70.6752 27.4275 71.2737 28.0262C71.8723 28.6242 72.8422 28.6242 73.4409 28.0262L85.2557 16.2111L88.352 19.3074L58.1371 49.5223L55.0409 46.426L68.2293 33.2377C68.8278 32.639 68.8278 31.6691 68.2293 31.0705C67.6307 30.4724 66.6608 30.4724 66.0621 31.0705L56.493 40.6396L46.0785 31.2463C49.0313 22.7471 46.893 13.291 40.4877 6.88592C33.927 0.325175 24.0848 -1.76565 15.4133 1.55994C14.9287 1.74588 14.5711 2.16424 14.4633 2.67186C14.3555 3.17947 14.5116 3.70721 14.8785 4.0742L26.9082 16.1041C27.2641 16.4599 27.4604 16.9332 27.4604 17.4365C27.4604 17.9398 27.2643 18.4131 26.9082 18.7691L19.0959 26.5814C18.7401 26.9375 18.2668 27.1336 17.7635 27.1336C17.2602 27.1336 16.7869 26.9377 16.4309 26.5814L4.40101 14.5515C4.03382 14.1846 3.50647 14.0285 2.99866 14.1363C2.49104 14.2443 2.07269 14.6017 1.88675 15.0863C-1.43884 23.7574 0.651982 33.5996 7.21292 40.1607C13.4612 46.4088 22.734 48.6086 31.0994 45.9057L39.1516 54.7109C38.7647 55.467 38.2616 56.1721 37.641 56.7926C35.32 59.1137 31.8412 59.8449 28.7778 58.6559C28.2116 58.4355 27.5692 58.5711 27.1395 59.0006L8.37796 77.7621C3.29905 82.8412 3.29905 91.1053 8.37796 96.184C10.8387 98.6451 14.11 100 17.5895 100C21.0688 100 24.3403 98.6451 26.8006 96.1848L45.5621 77.4234C45.9914 76.9939 46.1268 76.3514 45.9069 75.7852C44.7176 72.7219 45.4489 69.2428 47.7698 66.9217C50.0912 64.6006 53.5702 63.8693 56.6334 65.0584C57.2 65.2787 57.842 65.1428 58.2717 64.7137L61.8108 61.1746C62.8764 60.109 63.4631 58.692 63.4631 57.1852C63.4631 55.6783 62.8764 54.2613 61.8108 53.1957L60.3043 51.6893L62.1369 49.8566L93.1041 77.7877C95.2862 79.7559 96.5297 82.4578 96.6053 85.3953C96.6809 88.3328 95.5782 91.0951 93.5002 93.1729C91.4323 95.2412 88.677 96.342 85.7588 96.2789C82.8348 96.2137 80.1375 94.9891 78.1639 92.8307L55.1387 67.6519C54.567 67.0271 53.5983 66.9842 52.9739 67.5553C52.3494 68.1266 52.3061 69.0957 52.8772 69.7201L75.9022 94.8988C78.4459 97.6803 81.9221 99.2584 85.6903 99.3426C85.7957 99.3449 85.901 99.3461 86.0063 99.3461C89.6563 99.3461 93.0764 97.9303 95.6672 95.3399C98.345 92.6619 99.7659 89.1021 99.6686 85.3164ZM87.1385 13.7597L90.0719 8.20232L96.3608 14.4912L90.8034 17.4246L87.1385 13.7597ZM32.6805 43.0935C32.2586 42.6326 31.5996 42.4736 31.0141 42.692C23.5213 45.4869 15.0287 43.6428 9.37972 37.9943C4.25042 32.8648 2.26292 25.4285 4.01429 18.4992L14.2637 28.7486C15.1987 29.6834 16.4414 30.198 17.7633 30.198C19.0852 30.198 20.328 29.6834 21.2627 28.7486L29.075 20.9363C30.0098 20.0014 30.5244 18.7586 30.5244 17.4367C30.5244 16.1148 30.0098 14.8721 29.075 13.9373L18.8258 3.68748C25.7545 1.93533 33.1916 3.92342 38.3207 9.05291C44.1135 14.8453 45.8936 23.5066 42.8563 31.1189C42.6186 31.7144 42.7768 32.3951 43.2532 32.8246L54.3233 42.8094L52.8737 44.259L51.3672 42.7525C50.3016 41.6869 48.8846 41.1002 47.3778 41.1002C45.8709 41.1002 44.4539 41.6869 43.3883 42.7525L39.8493 46.2916C39.42 46.7211 39.2846 47.3637 39.5045 47.9299C39.9121 48.9797 40.0889 50.0777 40.0586 51.1619L32.6805 43.0935ZM59.6434 59.0076L56.7758 61.8754C52.8321 60.7385 48.5407 61.817 45.603 64.7545H45.6028C42.6653 67.6922 41.5866 71.983 42.7239 75.9275L24.6336 94.0174C22.752 95.899 20.2504 96.9354 17.5897 96.9354C14.9289 96.9354 12.427 95.899 10.5457 94.0174C6.66155 90.1334 6.66155 83.8135 10.5457 79.9293L28.6358 61.8393C32.5799 62.9768 36.8707 61.8975 39.8086 58.96C42.7461 56.0223 43.825 51.7314 42.6877 47.7871L45.5555 44.9195C46.5602 43.9144 48.1955 43.9144 49.2002 44.9195L51.7903 47.5096L57.0534 52.7727L59.6434 55.3627C60.6485 56.3678 60.6485 58.0029 59.6434 59.0076Z" fill="#FFC700"/>
<path d="M99.6686 85.3164C99.5709 81.5307 97.9686 78.0486 95.1565 75.5121L64.3065 47.6869L91.5834 20.4099C91.7627 20.3564 91.9399 20.2898 92.1108 20.1996L98.0176 17.082C98.8336 16.6512 99.3809 15.8805 99.5186 14.9681C99.6565 14.0556 99.3614 13.158 98.7088 12.5049L92.058 5.85428C91.4053 5.20174 90.5082 4.90662 89.595 5.04451C88.6827 5.18221 87.9121 5.72947 87.4811 6.54568L84.3633 12.4521C84.2723 12.6246 84.2024 12.8029 84.1487 12.984L71.2737 25.859C70.6752 26.4576 70.6752 27.4275 71.2737 28.0262C71.8723 28.6242 72.8422 28.6242 73.4409 28.0262L85.2557 16.2111L88.352 19.3074L58.1371 49.5223L55.0409 46.426L68.2293 33.2377C68.8278 32.639 68.8278 31.6691 68.2293 31.0705C67.6307 30.4724 66.6608 30.4724 66.0621 31.0705L56.493 40.6396L46.0785 31.2463C49.0313 22.7471 46.893 13.291 40.4877 6.88592C33.927 0.325175 24.0848 -1.76565 15.4133 1.55994C14.9287 1.74588 14.5711 2.16424 14.4633 2.67186C14.3555 3.17947 14.5116 3.70721 14.8785 4.0742L26.9082 16.1041C27.2641 16.4599 27.4604 16.9332 27.4604 17.4365C27.4604 17.9398 27.2643 18.4131 26.9082 18.7691L19.0959 26.5814C18.7401 26.9375 18.2668 27.1336 17.7635 27.1336C17.2602 27.1336 16.7869 26.9377 16.4309 26.5814L4.40101 14.5515C4.03382 14.1846 3.50647 14.0285 2.99866 14.1363C2.49104 14.2443 2.07269 14.6017 1.88675 15.0863C-1.43884 23.7574 0.651982 33.5996 7.21292 40.1607C13.4612 46.4088 22.734 48.6086 31.0994 45.9057L39.1516 54.7109C38.7647 55.467 38.2616 56.1721 37.641 56.7926C35.32 59.1137 31.8412 59.8449 28.7778 58.6559C28.2116 58.4355 27.5692 58.5711 27.1395 59.0006L8.37796 77.7621C3.29905 82.8412 3.29905 91.1053 8.37796 96.184C10.8387 98.6451 14.11 100 17.5895 100C21.0688 100 24.3403 98.6451 26.8006 96.1848L45.5621 77.4234C45.9914 76.9939 46.1268 76.3514 45.9069 75.7852C44.7176 72.7219 45.4489 69.2428 47.7698 66.9217C50.0912 64.6006 53.5702 63.8693 56.6334 65.0584C57.2 65.2787 57.842 65.1428 58.2717 64.7137L61.8108 61.1746C62.8764 60.109 63.4631 58.692 63.4631 57.1852C63.4631 55.6783 62.8764 54.2613 61.8108 53.1957L60.3043 51.6893L62.1369 49.8566L93.1041 77.7877C95.2862 79.7559 96.5297 82.4578 96.6053 85.3953C96.6809 88.3328 95.5782 91.0951 93.5002 93.1729C91.4323 95.2412 88.677 96.342 85.7588 96.2789C82.8348 96.2137 80.1375 94.9891 78.1639 92.8307L55.1387 67.6519C54.567 67.0271 53.5983 66.9842 52.9739 67.5553C52.3494 68.1266 52.3061 69.0957 52.8772 69.7201L75.9022 94.8988C78.4459 97.6803 81.9221 99.2584 85.6903 99.3426C85.7957 99.3449 85.901 99.3461 86.0063 99.3461C89.6563 99.3461 93.0764 97.9303 95.6672 95.3399C98.345 92.6619 99.7659 89.1021 99.6686 85.3164ZM87.1385 13.7597L90.0719 8.20232L96.3608 14.4912L90.8034 17.4246L87.1385 13.7597ZM32.6805 43.0935C32.2586 42.6326 31.5996 42.4736 31.0141 42.692C23.5213 45.4869 15.0287 43.6428 9.37972 37.9943C4.25042 32.8648 2.26292 25.4285 4.01429 18.4992L14.2637 28.7486C15.1987 29.6834 16.4414 30.198 17.7633 30.198C19.0852 30.198 20.328 29.6834 21.2627 28.7486L29.075 20.9363C30.0098 20.0014 30.5244 18.7586 30.5244 17.4367C30.5244 16.1148 30.0098 14.8721 29.075 13.9373L18.8258 3.68748C25.7545 1.93533 33.1916 3.92342 38.3207 9.05291C44.1135 14.8453 45.8936 23.5066 42.8563 31.1189C42.6186 31.7144 42.7768 32.3951 43.2532 32.8246L54.3233 42.8094L52.8737 44.259L51.3672 42.7525C50.3016 41.6869 48.8846 41.1002 47.3778 41.1002C45.8709 41.1002 44.4539 41.6869 43.3883 42.7525L39.8493 46.2916C39.42 46.7211 39.2846 47.3637 39.5045 47.9299C39.9121 48.9797 40.0889 50.0777 40.0586 51.1619L32.6805 43.0935ZM59.6434 59.0076L56.7758 61.8754C52.8321 60.7385 48.5407 61.817 45.603 64.7545H45.6028C42.6653 67.6922 41.5866 71.983 42.7239 75.9275L24.6336 94.0174C22.752 95.899 20.2504 96.9354 17.5897 96.9354C14.9289 96.9354 12.427 95.899 10.5457 94.0174C6.66155 90.1334 6.66155 83.8135 10.5457 79.9293L28.6358 61.8393C32.5799 62.9768 36.8707 61.8975 39.8086 58.96C42.7461 56.0223 43.825 51.7314 42.6877 47.7871L45.5555 44.9195C46.5602 43.9144 48.1955 43.9144 49.2002 44.9195L51.7903 47.5096L57.0534 52.7727L59.6434 55.3627C60.6485 56.3678 60.6485 58.0029 59.6434 59.0076Z" stroke="#FFC700" mask="url(#path-1-outside-1)"/>
</svg>
