<svg width="39" height="18" viewBox="0 0 39 18" fill="none" xmlns="http://www.w3.org/2000/svg">
<path d="M38.659 8.73262C38.659 8.17661 38.2093 7.7269 37.6533 7.7269H3.41782L9.43581 1.70891C9.82829 1.31644 9.82829 0.686836 9.43581 0.294358C9.04333 -0.0981194 8.41374 -0.0981194 8.02126 0.294358L0.294358 8.02126C-0.0981194 8.41374 -0.0981194 9.04334 0.294358 9.43581L8.02126 17.1627C8.2175 17.359 8.47097 17.4571 8.73262 17.4571C8.99427 17.4571 9.24775 17.359 9.44399 17.1627C9.83647 16.7702 9.83647 16.1406 9.44399 15.7482L3.426 9.73017H37.6697C38.2093 9.73017 38.659 9.28863 38.659 8.73262Z" fill="black"/>
</svg>
